<svg xmlns="http://www.w3.org/2000/svg" width="1600" height="3020" viewBox="0 0 1200 2265"><path fill="#26231f" d="M381.6 11.109a62.783 62.783 0 0 0-7.938.37c-18.55 2.831-40.79 10.901-46.46 30.671-36.06 31.46-73.71 61.35-110.18 92.42 8.71 61.93 19.51 123.64 28.92 185.48 2.75 4.08-.84 4.96-3.16 5.8-18.43 4.13-37.26 7.7-54.71 15.17-12.3 4.2-13.56 19.26-17.21 29.84-11.31 45.44-15.5 93.19-8.35 139.62 4.06 24.34 12.54 50.74 34.2 65.07 1.79 7.04-10.59 1.3-11.88 7.54-1.53 5.6-4.1 14.009 1.09 18.489 6.51 1.19 13.26-.26 19.85-.54 2.92 14.46.39 29.91-2.45 44.23-14.56 1.33-16.07 17.26-10.51 27.57-21.53 5.19-44.08 8.34-63.75 19.08-5.7 2.79-6.04 9.79-6.97 15.26-1.33 35.97 4.37 72.51 17.74 105.99 2.77 6.04 5.33 13.689 12.88 14.809 29.24-.64 58.47-2.66 87.72-2.98 2.97 15.82 12.77 33.81 31.79 30.5 10.84 46.3 20.06 95.79 8.25 142.83-2.88 17.3-26.97 5.27-35.3 17.941-10.8 15.52-6.44 35.66-.42 51.5-55.6 9.58-111.44 19.48-165.28 36.68-12.96 5.18-29.07 8.67-36.38 21.691-13.48 40.92-9.931 84.88-8.481 127.24 3.5 38.32 5.05 79.301 24.32 113.59 4.43 11.14 20.65 5.7 26.05 11.04-14.1 5.29-36.37-5.76-49.84 6.22-10.89 14.05-7.99 33.75-3.04 49.61 3.38 13.99 20.401 8.8 30.341 12.74 13.47 60.69 24.43 122.68 22.31 185.1-1.52 19.61-2.78 40.16-11.15 58.27-12.74-.94-29.52-4.93-36.66 9.15-13.25 23.45-16.14 52.36-11.94 78.62 2.42 14.88 27.04 9.77 29.49 20.72-21.95 54.19-40.95 110.37-47.25 168.81-2.62 30.63-2.01 63.688 13.13 91.358 11.51 21.1 34.08 32.041 54.69 42.341 68.4 31.69 140.24 55.1 211.91 78.1 102.38 30.41 206.73 62.91 312.3 74.05 124.79-48.27 249.06-98.05 371.31-152.52 57.32-25.91 114.67-52.15 169-84 18.85-12.16 40.64-22.87 52.49-42.68 4.24-20.87 4.31-49.44-15.59-62.54-12.72 1.32-24.66 10.32-37.71 10.26-21.59-34.14-40.95-70.17-53.81-108.59-6.04-18.79-10.02-39.19-4.69-58.65 17.65-10.36 40.74-12.87 54.61-28.65 5.9-28.31 9.04-59.499-1.46-87.039-4.18-10.4-15.3-5.39-23.35-4.69 33.38-74.64 32.43-160.96 19.3-240.39-7.39-27.8-12.98-60.27-37.12-78.91-25.4-8.84-52.831-1.129-78.941-1.009 5.77-26.11-31.67-21.9-35.14-43.86-8.68-39.67-6.55-80.92-2.37-121.04 2.59-16.11 3.68-36.23 19.83-45.12 12.72-12.99 17.29-40 1.1-51.58-23.11-4.84-47.68-5.681-70.5-10.062 10.57-14.78 15.1-34.6 18.97-52.82 7.98-42.56 14.36-86.1 11.35-129.48.08-13.33-15.62-16.97-23.27-23.77-4.24-36.68 9.421-72.229 22.892-105.81.51-1.48 1.42-4.13-.92-4.38-45.52-17.26-91.1-34.43-136.67-51.53 1.05-28.25 16.97-61.06.94-87.79-19.95-10.91-43.251-16.8-63.411-26.42 8.86-10.18 9.45-30.16-5.91-35.31-14.23-26.56-1.859-58.53 7.891-84.56 10.23-3.05 15.509-21.54 5.169-27.52-52.91-39.77-111.84-70.74-168-105.44-3.81-74.44-5.57-149.03-9.75-223.41-57.17-21.578-114.65-43.88-174.01-58.19-5.956-10.644-18.196-14.342-29.903-14.55zm5.445 29.636c3.495 0 6.978.178 10.428.684 19.43 83.89 35.73 168.58 51.59 253.19-18.76 5.9-38.03 11.17-57.63 12.96-8.09-15.17-10.01-32.62-13.87-49.15-12.04-69.34-22.52-139.01-30.7-208.91 6.03-6.02 14.75-6.962 22.73-8.012 5.775-.275 11.628-.764 17.452-.764zm40.77 13.675c.234-.01.482-.002.747.02 51.11 5.96 98.861 29.12 146.58 47.75 4.24 65.06 5.919 131.9 9.969 197.58-14.98-3.39-28.699-13.58-44.589-11.41-23.38 3.13-46.79 6.21-70.25 8.57-14.97-78.48-29.69-157.06-44.8-235.52-1.125-3.291-1.16-6.854 2.342-6.99zm-101.86 13.583c1.43-.063 2.52.727 2.34 2.647 10.66 76.32 21.67 152.63 31.5 229.06-31.87 5.49-63.53 12.69-95.49 17.27-12.08-52.55-22.3-105.58-34.18-158.21-1.09-5.99-4.57-13.631 2.12-17.591 29.94-25.14 58.01-53.549 92.2-72.839a4.832 4.832 0 0 1 1.509-.338zm221.09 232.1c6.416-.012.65 14.132-5.504 14.059-85.05 7.9-170.15 18.03-254.08 34.3-22.66 5.77-47.62 8.17-67.26 21.75-36.36 46.56-40.45 122.13 3.12 165.5 117.91-16.31 235.72-33.72 353.69-49.58 1.96 4.56-.508 12.66-1.288 18.55-99.99 16.74-200.11 33.071-300.63 46.411-22.71 2.63-45.44 6.369-68.35 5.919-21.68-12.73-29.941-39.12-32.991-62.74-5.59-47.42 3.75-95.26 17-140.68 117.96-17.66 235.93-35.33 353.9-53 .937-.335 1.731-.489 2.395-.49zm20.234 4.15c14.3 2.63 26.701 12.34 39.591 18.87 46.92 27.89 93.8 56.359 136.69 90.239 3.85 2.56 14.121 12.431 2.332 8.96-63.75-28.24-123.47-64.9-183.78-99.72 1.97-5.73 1.49-13.67 5.17-18.35zm-22.497 33.828c3.678-.248-.065 7.586 1.277 9.852 1.66 38.17 2.9 79.11 21.6 113.24-84.82 15.49-172.27 30.229-258.68 41.809-24.79 2.93-49.63 6.84-74.66 6-7.43-.35-9.02-9.1-11.66-14.64-8.23-29.38-13.32-62.21-1.74-91.38 7.36-19.25 31.04-19.32 47.87-24.16 90.81-17.86 182.83-28.73 274.6-40.37.554-.213 1.013-.325 1.393-.351zm19.167 13.102c52.89 18.93 105.31 39.63 156.06 63.8 8.63 5.31 20.97 9.23 24.92 18.72-7.15 5.25-13.7 11.7-13.78 21.45-3.15 24.3-.36 49.02 4.83 72.85-40.94-12.23-81.629-25.99-120.01-44.97-16.83-8.76-34.33-19.849-41.9-38.109-13.02-29.32-11.25-62.491-10.12-93.741zm-62.169 7.783c-4.144-.068-9.005.809-12.16.567-34.89 3.54-67.3 17.991-101.25 25.761-2.68-.26-3.34 3.4-.28 2.81 41.87.31 80.049-20.012 120.92-26.292-1.217-2.17-4.005-2.794-7.229-2.847zm3.341 39.942c-5.994.055-12.177.916-17.522.636-21.11 1.9-42.641 3.989-62.541 11.689-.34 5.7 8.16 1.09 11.341 2.24 28.43-2.73 56.989-5.28 85.109-10.37-4.59-3.5-10.394-4.25-16.388-4.195zm90.338 92.236c50.3 13.03 97.39 37.529 144.42 59.009-47.81-11.33-96.13-21.52-142.8-37-10.51-2.92-9.98-17.11-1.62-22.01zm-26.205 37.195c9.114.25 26.474 15.426 6.605 14.534-118.11 18.63-237.51 27.499-356.4 39.659-2.1 1.16-15.24.24-3.75-.88 117.61-17.37 235.18-35.23 352.69-53.29.275-.025.56-.032.854-.024zm48.005 27.844c36.95 1.65 72.281 15.59 107.96 24.6 27.3 7.8 54.779 15.36 81.609 24.56 3.49 13.37 5.57 27.31 4.88 41.13-.45 6.79-4.18 16.36-12.87 14.48-23.94-2.08-47.17-9.13-70.86-12.94 71.3 25.25 142.06 52.37 211.91 81.3-1.07 10.67-13.971 14.72-22.691 9.65-72.04-24.02-141.8-54.26-211.98-83.11-7.37-1.23-8.44-8.69-9.03-14.93-30.66-7.11-61.941-12.75-92.211-20.78 12.89-18.51 12.51-42.391 13.28-63.961zm-34.162 14.327c13.233-.316 14.544 21.198 4.653 29.294-13.53 17.07-36.81 16.86-56.32 20.64-87.98 11.61-176.82 14.83-265.42 17.62-15.78-1.12-32.79 2.1-47.95-1.95 4.42-10.05 2.321-20.98 3.231-31.55 45.2-9.23 91.63-11.56 137.53-15.75 72.23-6.04 144.53-11.12 216.82-16.24 2.807-1.374 5.291-2.011 7.457-2.063zm-100.48 68.123c7.237.022 14.444.41 21.566 1.61-96.33 9.62-193.21 17.75-289.8 25.74-3.72-3.42-5.73-9.98-7.15-15.13 79.73-3.7 159.41-8.92 239.2-11.37 11.975.087 24.122-.888 36.184-.85zm189.7 1.212c2.088.01 4.177.058 6.264.158 2.78 3.44 1.22 10.71-3.67 11.1-140.33 15.89-280.68 31.93-420.6 51.21-37.03 6.3-75.49 8.22-111.21 20.05 2.06 22.83 2.69 46.13 9.2 68.28 1.7 5.15 4.73 12.39 11.759 10.05 171.4-7.22 342.58-19.22 513.85-28.36 1.53 7.66-2.13 19.35-12.06 17.7-160.57 9.58-321.12 20.74-481.89 26.03-11.54-1.98-26.97 4.72-35.83-5.36-14.1-24.88-18.448-53.92-21.038-82.01-.08-9.99-1.11-27.37 13.65-27.03 79.13-15.19 159.42-23.32 239.29-33.64 91.04-10.38 182.08-21.22 273.51-27.52 6.247-.36 12.51-.685 18.775-.657zm8.455 25.878c-10.16 26.36-23.23 57.16-10.17 84.25-147.6 12.74-295.02 28.37-442.97 36.69-20.01.45-40.23 3.12-60.16.4-8.55-14.07-17.6-37.53-5.17-51.06 170.58-24.08 341.66-45.962 512.39-69.492 1.52-.2 4.56-.589 6.08-.789zm12.48 24.57c80.24 22.92 160.01 47.91 240.33 70.7-14.84 14.36-19.08 37.56-15.35 57.85-77.57-21.52-155.09-43.35-232.06-66.91-15.04-17.39-15.57-49.86 7.08-61.64zm-69.581 8.674c-7.403-.032-14.804.183-22.17.565-39.15 1.63-78.79 5.4-116.22 17.641-1.79 1.11-5.819 1-5.159 3.88 58.27-9.23 117.15-13.081 175.97-16.841.93 2.17 9.29-2.28 4.44-2.66-12.182-1.793-24.524-2.532-36.862-2.585zm73.28 67.84c69.36 11.96 136.39 35.04 204.1 54.1 6.8.4 10.38 6.63 12.83 12.19-73.42-15.29-147.05-29.56-220.32-45.52-10-2.87-1.55-16.88 3.39-20.77zm-52.12 40.02c-2.34 8.45-5.7 17.71-16.46 16.55-119.04 13.96-239.25 14.41-358.86 19.58-4.85-4.01-7.419-11.75-9.629-17.82 23.03-5.53 46.881-5.88 70.391-7.87 92.36-5.45 184.9-7.62 277.35-9.63 12.37-1.04 24.799-.6 37.209-.81zm42.45 17.959c82.39 19.34 165.64 34.79 248.55 51.74-5.61 42.1-13.57 84.59-27.37 124.9-3.7 16.32-23.32 13.6-35.98 15-69.23 2.04-138.42-3.89-207.39-9.32 17.22-10.36 27.88-29.04 31.45-48.57 8.59-44.5 1.459-90.27-9.261-133.75zm-47.245 20.712c7.278-.203 13.903 1.28 16.086 9.548 8.25 27.29 3.55 56.77-3.13 83.93-4.34 16.16-11.111 37.12-31.611 37.39-106.8 16.9-215.52 15.71-323.32 18.96 13.57-21.34 10.98-48.23 6.85-72.05 14.23.46 30.771-1.76 42.361-10.27-13.84-5.2-30.93.22-42.55 8.95-3.45-20.43-9.96-40.18-15.611-59.95 111.5-5.32 223.01-10.71 334.54-15.38 4.668.206 10.724-.97 16.384-1.128zm-225.35 36.653c-3.33-.019-6.833.36-9.125.395-35.22 1.94-69.34 12.22-104.52 14.44 1.56 5.1 10.92 3.16 15.4 4.67 36.34-.06 71.61-10.31 107.3-15.9-.776-2.903-4.775-3.582-9.056-3.605zm212.15 108.19c12.412-.744 2.247 23.403-7.974 21.61-112 19.48-225.87 25.79-339.06 35.1-10.73 4.58-29.939-17.15-13.309-19.63 86.21-14.39 174.11-14.39 261.07-21.89 32.76-3.4 67.35-1.47 98-15.04.448-.077.873-.127 1.274-.15zm-1.069 40.483c1.571-.012 3.143-.01 4.716.019 2.8 11.63 9.52 30.689-3.37 38.539-156.64 17.19-314.46 27.65-469.48 57.24-20.45 5.38-43.09 7.56-60.29 20.74-12.13 20.63-14.18 45.21-17.56 68.43-3.5 37.73-6.371 77.16 5.579 113.75 4.91 15.44 23.921 10.85 36.081 13.02 177.47 5.92 355.25 4.8 532.76 3.83 4.18 10.01 12.07 24.36 2.7 33.36 4.58 1.68 12.831-2.65 15.891.059-5.63.54-11.221 1.421-16.861 1.831-182.97-2.34-366.06-1.221-548.8-11.73-12.69-2.04-30.059.62-36.089-14.02-10.6-23.5-12.051-49.75-14.931-75.02-2.68-44.93-5.1-90.71 3.65-135.12 2.37-16.22 22.001-17.509 34.081-22.909 109.04-30.81 221.45-47.22 333.01-66 61.49-9.16 122.95-18.82 184.79-25.41 4.702-.368 9.41-.572 14.124-.609zm37.43 9.906c1.062.034 2.147.234 3.247.622 106.52 3.09 212.59 16.46 318.38 28.88 1.87 11.16 2.86 24.08-4.15 33.75-17.27 3.45-35.02 1.9-52.45.78-90.42-6.41-179.99-20.79-270.01-30.93-21.75 3.028-10.945-33.618 4.984-33.102zm-35.324 52.202c-4.1 26.47-7.02 53.15-8.09 79.93-59.12-2.58-116.4 14.89-175.04 18.82-4.82-.05 2.14 5.45 4.03 2.77 57.51 4.91 113.57-12.76 170.42-18.3-.97 25.34.308 50.67 2.608 75.9-25.06-1.48-49.74 4.92-74.79 3.82-4.55-4.98-6.74 3.15-3.17 3.29 25.63 9.43 53.21 2.82 79.11-1.9 3.87 21.82 9.92 43.86 22.87 62.11-135.27 4.4-274.83 3.8-411.73 3.7-42.39-2.11-85.41-.49-127.22-8.82-10.85-1.4-8.96-15.298-10.99-23.058-3.92-37.76-6.16-78.57 10.38-113.82 8.07-17.51 29.41-15.87 45.26-19.77 156.5-24.96 313.87-44 471.05-64.01 1.32-.14 3.96-.44 5.29-.59zm89.169 27.45c68.984-.131 138.03.625 206.87 5.7 12.94 1.38 26.43 2.29 38.45 7.59 4.73 5.4-5.54 9.81-6.31 15.5-10.34 43.85 2.44 88.73 10.75 131.85-96.91 6.88-194.78 12.53-289.44 35.88-23.08-16.11-32.638-45.008-36.568-71.708-5.78-41.17-2.581-83.28 5.789-123.87 13.62-.82 27.28.19 40.9-.84 9.85-.046 19.705-.082 29.559-.1zm-139.19 90.552c-3.795.043-7.56.284-11.202.619-22.86 2.34-45.179 8.19-67.959 10.98-2.49 1.11.9 2.77 2.24 2.7 34.75 4.89 68.92-11.01 103.62-4.59 2.57.27 10.32 1.48 5.84-1.91-9.488-6.27-21.153-7.927-32.54-7.799zm400.2 93.494c7.921.21 13.03 11.06 17.567 15.475-101.29 21.97-204.3 41.27-305.18 65.91-11.18-8.7-10.001-28.5-9.26-40.5 97.23-20.44 196.77-28 295.25-40.78a9.004 9.004 0 0 1 1.622-.106zm96.094 45.14c6.232-.045 12.219.97 17.044 5.355 23.82 29.78 25.179 69.9 26.469 106.28-.5 55.66-7.53 111.57-22.009 165.32-26.07 19.49-58.12 29.27-87.63 42.5-112.51 45.62-226.6 87.37-341 127.91 36.37-42.45 50.31-98.91 54.37-153.57 5.85-77.78-5.41-155.81-23.42-231.36 15.18 1.9 30.5.67 45.6-1.43 104.82-15.72 206.86-46.59 312.05-60.01 5.815.15 12.294-.952 18.527-.996zm-717.96 41.363c85.991.132 171.95 2.237 257.36 12.531 16.9 3.56 35.559 4.65 50.019 15.02 11.36 16.5 17.03 36.27 21.27 55.67 16.97 91.23 6.47 185.78-15.4 275.29-5.21 17.58-8.92 36.91-20.72 51.34-22.33 4.84-45.799 1.14-68.539 2.09-172.17-8.83-344.43-20.39-515.69-40.2-17.81-9.61-7.25-37.811-4.14-53.641 139.22 25.03 279.57 49.08 421.37 50.78 42.44-2.53 91.132-.05 126.53-27.58 33.36-33.26 39.36-83.21 39.58-128.01-1.52-52.2-11.09-104.28-28.5-153.51-4.18-16.84-26.6-13.9-39.91-17.11-175.6-14.99-352.14-5.389-528.08-8.779-15.82-1.04-14.28-20.65-6.65-29.82 52.26-1.74 104.52-2.7 156.8-3.52 51.502 0 103.11-.631 154.7-.552zm80.008 56.75c47.894.115 95.74 1.506 143.35 6.781 26.37 1.24 28.75 34.441 32.68 54.331 6.46 57.47 3.79 117.44-16.22 172.22-8.39 20.38-20.7 45.241-45.6 47.361-51.24 6.73-103.1.31-154.26-4.49-97.19-10.42-193.78-25.82-289.99-42.92 7.04-11.52 14.31-23.28 17.17-36.65 39.17 5.97 77.6 18.49 117.5 19.57 1.93-1.58 9.4 1.4 9.2-2.8-41.41-7.91-82.35-20.24-124.77-21.15 6.84-37.03.63-74.98-11.98-110.11 69.15 16.92 140.96 4.11 211.08 12.05 5.1 3.6 7.41-1.72 2.81-2.18-70.47-18.42-144.37-2.54-215.63-15.011-9.17-24.94-22.03-48.739-34.29-71.909 71.77-.53 143.52-3.8 215.31-4.21 47.805.164 95.747-.997 143.64-.882zm-222.7 133.29c-7.39.02-14.749.264-21.981.531-18.4 2.68-42.19-.07-57.5 7.42 47.83 4.73 96.32-1.01 144.17 3.55-20.085-9.57-42.521-11.556-64.689-11.501zm894.23 115.31c11.725.38 23.37 19.945 10.152 25.72-20.72 10.79-43.08 17.931-64.98 25.891-124.82 42.35-251.55 79-378.85 113.12-9.13.26-21.93 8.75-30.02 3.02 13.39-14.01 33.64-20.83 51.68-28.33 134.84-51.32 272.58-94.54 409.68-139.23a10.219 10.219 0 0 1 2.339-.19zm-41.909 75.53c-13.97 61.24 26.221 116.67 59.831 163.01-171.76 59.77-343.02 121.26-514.8 180.85-12.18-67.51-.88-144.35 37.2-203.77 138.55-47.07 277.51-93.04 416.25-139.62.38-.12 1.139-.35 1.519-.47zm-951.38 22.6c170.58-.32 340.49 19.751 510.12 35.791 4.4 10.9 8.7 23.94 4.61 35.61-4.73 10.07-17.07 6.59-25.73 5.8-152.43-16.62-305.01-34.6-458.35-39.44-11.88.9-24.15.14-35.6 3.95-21.42 18.05-29.01 46.92-32.83 73.53-4.17 33.86-4.96 70.36 9.69 101.95 15.73 13.02 35.569 19.32 54.269 26.8 139.28 49.84 283.09 85.66 426.02 123.25.11 16.64 1.65 36.21-.59 51.26-118.37-33.79-235.98-70.88-353.15-108.79-44.59-15.9-90.22-29.54-133.06-49.92-14.13-5.3-15.42-22.5-18.32-34.9-7.96-57.3-8.67-115.6-1.12-172.9 3.33-15.81 5.43-33.07 16.23-45.78 11.48-5.98 25.27-4.622 37.72-6.312zm25.083 64.594c12.784.084 25.567 1.339 38.317 2.156 147.29 12.75 294.13 30.111 441 46.841-4.11 12.9-8.18 25.921-12.18 38.891-82-20.91-168.12-18.62-252.14-14.45-2.49 1.46-8.909-1.34-9.719 2.75 75.27 4.95 150.98 1.17 226.04 9.93 11.66 2.22 23.44 5.14 35.4 3.19-14.69 57.74-24.219 118.09-16.209 177.6-113.48-22.67-226.76-46.67-339.02-74.9-36.29-9.99-73.06-18.91-108.07-32.95-10.22-4.16-22.33-9.21-24.58-21.4-10.08-36.83-13.99-76.45-6.79-114.14 2.55-8.43 5.13-21.06 15.17-23.15 4.26-.293 8.521-.396 12.783-.368zm883.07 42.477c-108.22 53.62-228.7 72.54-341.94 112.13-4.37 1.1-16.891 7.79-4.84 4.37 112.93-31.03 232.24-49.35 335.5-107.68 2.32-1.35 14.46-8.95 11.28-8.82zm145.84 39c18.13-.11 11.439 31.17 1.49 39.55-191.45 78.28-383.53 155.05-575.16 232.86-15.05 2.96 1.699-17.71 5.329-23.92 81.38-20.19 158.98-54.38 235.67-88.23 112.58-49.85 222.09-106.43 332.67-160.26zm-720.1 31.38c-1.16 3.49 4.77 2.68 6.97 4 42.56 9.33 84.92 25.81 129.09 23.62 7.13-.7-3.92-4.589-5.95-3.989-43.5-6.93-85.699-23.701-130.11-23.631zm419.61 30.842c-2.601 0-6.243.503-7.278.708-78.41 9.09-156.65 29.3-226.57 66.53-7.4 5.06 3.63 1.9 6.24.49 73.99-29.01 151.16-48.34 228.64-65.37 3.13-1.84 1.57-2.354-1.03-2.358zm-428.76 15.478c-3.03 2.52 6.19 4.24 7.96 5.74 41.55 14.79 86.68 26.91 131.01 21.05-45.06-9.32-93-17.16-138.97-26.79z"/></svg>