<svg xmlns="http://www.w3.org/2000/svg" width="1340" height="1409pt" viewBox="0 0 1005 1409"><path d="M576.896 14.069c-18.88-.01-37.694.297-56.308.531-88.48 6.31-177.128 29.56-253.296 75.64-44.57 28.54-82.992 67.78-109.2 113.873-14.34 32.33-18.882 67.82-19.331 102.896-28.18-1.18-56.23-4.83-84.448-5.31-7.84-.68-17.27.01-23.2-5.87 6.17-10.46-18.51-9.01-21.01-1.75 5.02 8.49 13.421 15.86 22.49 19.83 80.52-6.71 162.337 6.69 239.249 31.2 21.26 5.54 40.368 15.771 60.118 24.911 48.44 25.62 100.328 51.18 133.688 96.376 2.96 2.87-.88 6.25-2.62 8.61-24.98 24.9-21.29 67.87-3.26 94.896-42.9-4.89-78.77-31.36-112.6-56.08-32.54-23.91-60.51-53.72-82.432-87.648-7.17-16.22-12.31-35.81-22.93-48.87-.42 32.32 15.92 65.36 34.29 92.56-29.85-28.77-54.41-63.711-63.05-104.84-1.13-2.89-4.92-20.36-9.85-12.51-3.97 37.39 10.78 73.11 27.75 105.448-41.609-25.58-65.518-71.86-82.911-116.12.35-4.36-8.702-3.761-4.432 1.559 7.76 36.29 28.172 69.07 51.682 97.296 32.08 29.92 63.73 61.45 102.832 82.192 28.45 14.42 59.16 23.45 88.68 35.28 66.76 27.82 140.696 33.011 212.08 30.76-34.44 12.32-76.03 4.12-110.712 2 34.74 45.06 119.992 47.36 149.768-5.06 12.59-6.15 27-6.61 40.54-9.389 47.83-6.76 90.647-29.97 134.527-48.45 42.76-21.04 75.541-56.34 112.144-85.872-32.44 71.92-89.344 132.88-159.224 169.76-47.73 26.26-99.624 44.89-152.872 56.12-58.28 8.52-118.44.03-172.136-23.99-43.73-13.96-82.352-39.44-121.832-62.15-31.49-20-58.47-46-85.048-71.96-31.5-33.2-51.3-74.95-73.5-114.24-4.93 6.54 3.58 15.581 5.64 22.212 17.83 41.12 43.109 78.38 76.029 108.872 81.312 79.5 186.552 127.752 291.064 168.872-3.34 79.35-.43 161.824-4.87 241.88-56.62 10.11-114.888 23.72-161.44 59.4-44.78 35.58-81.696 85.376-88.648 143.472-2.01 33.01.26 67.4 14.54 97.744 25.1 55.26 75.89 94.432 129.144 120.856 49.26 24.06 103.84 39.16 159.04 36.01 103.888 4.94 210.752-43.55 271.32-128.671 36.53-53.25 37.19-124.48 11.71-182.432-25.65-52.34-72.718-91.872-125.168-115.8-41.57-18.02-86.728-24.811-131.024-32.661-4.78-1.85-3.07-8.44-3.83-12.63 1.61-72.98 5.68-145.936 7.05-218.936.05-7.3 7.32-8.19 12.5-10.24 74.67-30.81 154.576-56.24 215.6-111.456C896 526.45 942.87 460.462 976.181 388.206c18.68-44.34 24.071-94.672 14.711-142.048C963.052 145.43 876.332 79.942 775.26 43.702 695.3 16.135 644.332 14.05 576.908 14.018zm-21.489 6.645c43.867-.049 87.736 2.455 131.152 8.695 49.229 9.972 89.584 21.54 130.288 42.75 43.97 20.12 80.872 52.371 112.328 88.649 43.81 45.06 57.91 113.064 43.98 173.392-12.12 53.59-51.099 95.52-90.44 131.52-86.464 78.24-204.272 116.832-319.904 115.16 24.09-4.6 49.456-3.204 72.656-11.794 12.62-13.22 9.814-30.426 10.604-47.057.51-50.59-45.719-99.36-97.992-92.096-27.02-2.56-47.591 16.03-67.111 31.03-88.8-86.616-210.512-138.4-333.76-151.192-1.17-35.92 3.52-72.49 19.56-105.008 17.082-28.789 30.94-47.14 50.78-67.26 13.11-11.58 17.05-14.544 29.11-24.86 43.11-32.02 93.632-51.8 144.768-67.21 44.48-13.182 76.873-19.647 120.136-23.87 23.076-.866 29.228-.84 43.85-.856zm14.6 64.787c-2.147.004-4.293.02-6.439.049-86.512 1.82-175.472 21.83-247.032 72.259-1.06 1.86-.19 3.93 2.14 2.92 16-4.71 30.249-13.89 45.429-20.61 89.248-37.72 189.952-39.629 284.464-24.68-28.66 5.96-69.49 4.3-99.648 14.48 1.77 6.8 13.62 2.56 18.52 4.7 95.92-.76 194.032 17.271 277.76 65.2 39.96 27.9 71.77 69.85 78.42 119-3.34 41.6-13.07 84.817-42.88 115.889-3.96 6.35-17.781 14.68-12.961 20.97 46.28-28.35 78.22-78.9 85.144-132.888.26-34.21-6.291-68.831-24.611-98.112-42.16-49.968-98.56-89.16-162.064-105.928C703.457 96.734 636.56 85.374 570 85.502zm-60.313 44.18c-5.617-.058-12.617.989-15.087.869-57.84-1.72-114.52 14.56-165.856 40.19-35.51 21.26-73.79 43.599-92.96 82.072-2.74 10.53-11.58 20.742-7.79 32.082 4.42-.61 1.65-8.71 3.87-11.62 16.52-20.05 30.22-43.45 52.3-58.09 67.28-49.26 150.272-72.17 232.32-79.73 3.06-4.545-1.176-5.71-6.794-5.769zm212.4 77.146c-7.28.014-14.492.287-21.534.733-33.92 1.35-66.26 12.53-99.856 16.14-38.56 6.25-77.96 2.91-116.16-4.23-60.99-14.64-130.368-7.77-182.072 29.951-4.25 2.84-7.861 6.75-9.211 11.78 25.16-16.74 51.27-33.12 81.672-38.29 47.48-13.1 96.032 2.331 142.88 10.431 42.21 1.91 85.288 2.289 126.6-7.931 51.89-12.14 107.688-14.63 158.432 3.681 9.84 4.76 17.96 12.04 25.93 19.389 3.58 2.13 3.83-3.04 1.98-5-27.971-29.21-69.34-36.729-108.657-36.653zm-.39 31.74c-6.09-.015-12.17.302-18.203.954-6.72 1.61-19.31-1.191-22.5 5.689 41.63 2.27 93.64.81 122.776 38.011 30.15 28.45 16.58 73.68 2.49 107.048-11.8 27-35.07 46.78-51.93 69.96 6.29 1.29 15.31-7.251 21.67-10.22 32.069-25.14 60.98-56.25 76.57-94.409 7.16-17.1 4.83-36.99-2.57-53.54-28.643-41.29-78.725-63.368-128.305-63.493zm177.256 60.537c6.04 71.35-47.88 129.176-100.912 168.928-5.75 6.97 6.35 1.98 8.959.03 43.07-26.951 77.36-68.62 94.576-116.489 4.85-16.42 4.49-39.68-2.63-52.47zM568.784 453.416c13.753.121 28.237 2.205 37.005 13.816 17.48 20.91 24.06 53.37 10.95 77.99-1.66-27.45-13.591-59.68-39.66-75.19-11.21-9.13-26.9-3.58-39.24-8.87 5.76-5.63 13.849-7.31 21.618-7.61 3.017-.088 6.153-.164 9.327-.136zM546.8 703.176c15.92 9.84 33.999 12.64 52.11 7.06-1.18 76.751-2.27 153.64-6.97 230.273-12.55 10.96-47.46 7.99-43.049-14.54-.488-74.32-.184-148.592-2.088-222.824zm60.888 240.984c84.672 9.65 177.264 37.19 228.304 110.808 56.05 65 48.62 171.264-9.7 232.28-40.78 49.34-101.36 76.079-161.344 94.688-105.992 23.37-222.472-2.79-305.776-73.15-38.72-30.21-67.05-75.04-73.03-124.137-3.52-38.53 4.03-77.42 21.96-111.592 31.08-52.7 83.927-89.328 141.047-108.952 24.48-11.58 52.39-10.38 77.95-17.64 6.34-.32 3.581 7.57-1.309 7.44-37.84 5.29-76.09 13.64-109.712 32.45-1.25 4.24 4.06 1.12 6.28 1.02 35.07-10.97 70.89-20.751 107.744-23.16.2 42.529-.76 85.063-.05 127.583 2.26.3 4.7.09 4.93-2.91 15.88-45.591 14.41-94.609 14.28-142.209 9.68 14.99 30.411 19.3 43.011 5.15 4.03 48.41 2.36 97.152 6.17 145.568-.79 3.57 3.6 14.11 6.98 7.89.7-47.26 3.13-94.72.48-141.977 1.53-5.92 9.47-2.849 13.91-3.259 39.64 4.86 78.05 17.28 115.16 31.58 13.689 2.25.8-4.58-3.23-8.52a323.05 323.05 0 0 0-114.28-30.56c-4.21.39-18.119-3.24-9.77-8.39zm195.952 98.312c-11.63 17.4-31.541 26.01-49.411 35.71-22.56 13.9-47.3 25.32-73.8 28.11-4.59 4.86 4.76 7.871 8.42 9.861 39.13 17.72 81.28.19 121.44-3.52 13.28-4.72.3-22.4-.35-31.57 16.73 8.64 27.86 26.16 35 43.15 7.58 42.63-8.67 84.576-25.841 122.832-12.87 21.69-32.18 38.59-50.81 55.22-4.78 3.44.29 6 3.75 3.88 34.37-13.57 56.519-46.03 74.069-77.05 25.98-47.45 19.651-106.184-4.04-153.168-8.809-14.23-23-28.38-38.429-33.45zm-479.264 39.4c-25.05 38.47-30.24 87.312-19.91 131.608 13.27 41.05 42.32 74.97 76.489 100.52 21.27 17.63 44.751 33.759 71.631 41.359 70.38 24.63 147.816 29.93 220.272 11.49 3.73-2.83 14.791-3.63 13.582-9.24-20.44-.25-41.481 5.259-61.461 3.659 23.59-3.97 47.45-8.55 69.03-19.31 5.67-3.15 17.31-2.47 16.71-10.959-30.88 5.48-62.02 12.58-93.727 11.05-28.73-1.52-59.52 1.33-85.968-12.12-20.88-8.62-44.501-14.07-61.49-29.55 20.08 5.37 40.31 13.08 61.249 13.38-1.59-24.61 6.07-48.32 7.13-72.73.22-2.74.26-7.281-3.33-7.841-13.9-3.36-27.869-6.62-41.289-11.66-4.78-1.53-11.16-4.62-15.12.51-21.04 17.97-43.06 34.78-63.34 53.65-8.48 10.39-21.51 2.88-30.79-1.75-36.19-25.87-58.18-67.5-66.71-110.408-4.2-27.44 10.769-56.371 7.05-81.664zm146.584 42.56c-12.26.9-23.55 9.94-23.82 22.94-1.44 30.91 26.9 53.57 53.42 62.98 48.4 15.83 107.976 20.09 150.776-11.959 3.31-4.84 14.2-13.7 6.74-17.37-33.14 25.12-80.272 30.27-120.048 17.85-23.09-7.76-46.56-23.132-52.95-48.061-3.17-8.82-3.07-23.79-14.12-26.38zm58.095 10.91c-.25.01-.505.033-.766.07-3.95 7.01 2.391 17.27 6.861 23.35 18.87 25 68.42 19.14 72.59-14.76-19.66 2.98-40.03 14.48-59.78 3.9-8.245-1.336-11.15-12.902-18.906-12.56zm172.168 40.67c-21.27 40.22-64.34 65.681-108.888 71.381-.77 6.06 8.28 2.74 11.93 1.36 20.6.37 39.46-9.07 58.28-16.19 19.88-10.631 32.41-30.41 41.8-50.2.72-2.26-.06-6.63-3.12-6.35z"/></svg>